<svg width="644" height="124" viewBox="0 0 644 124" fill="none" xmlns="http://www.w3.org/2000/svg">
<rect width="644" height="124" rx="15" fill="#00D193"/>
<path d="M9.68 25V20.68H11.24C11.16 20.68 15 20.76 22.76 20.92C29.4 21 36.52 21 44.12 20.92L57.2 20.68H58.88V25V29.32H50.84H42.68V61.84V94.36H47.84C51.52 94.36 53.72 94.28 54.44 94.12C57.72 93.72 60.68 92.64 63.32 90.88C68.2 87.52 71.28 81.92 72.56 74.08C73.2 70.56 73.52 68.28 73.52 67.24C73.52 67.16 74.96 67.12 77.84 67.12H82.16V67.72C82 68.12 81.4 73.88 80.36 85C79.16 96.44 78.52 102.24 78.44 102.4V103H44H9.68V98.68V94.36H16.16H22.64V61.84V29.32H16.16H9.68V25ZM315.938 19.36H323.138H323.258C324.298 19.76 324.898 20.2 325.058 20.68L353.858 93.76L354.098 94.36H360.578H366.938V98.68V103H365.498L355.178 102.76C349.338 102.68 343.018 102.68 336.218 102.76L324.578 103H323.018V98.68V94.36H328.178L333.338 94.24L331.178 88.84L329.018 83.44H314.258C304.418 83.44 299.498 83.48 299.498 83.56L297.338 88.96L295.298 94.24C295.298 94.32 297.018 94.36 300.458 94.36H305.498V98.68V103H304.298L295.418 102.76C290.218 102.68 285.418 102.68 281.018 102.76L273.458 103H272.378V98.68V94.36H278.738H285.218L285.458 93.76L314.258 20.68C314.498 20.28 315.058 19.84 315.938 19.36ZM320.018 60.4L314.378 46H314.258L302.978 74.8H314.378L325.658 74.68L320.018 60.4Z" fill="#FEDC00"/>
<path d="M102.286 33.6C102.419 33.5333 103.019 33.5 104.086 33.5C105.219 33.6333 105.953 33.7333 106.286 33.8C108.886 34.6 110.753 36.1333 111.886 38.4C112.486 39.6667 112.786 40.9 112.786 42.1C112.786 43.3667 112.486 44.6 111.886 45.8C110.753 48.1333 108.886 49.7 106.286 50.5C105.686 50.6333 104.853 50.7 103.786 50.7C102.653 50.7 101.819 50.6333 101.286 50.5C98.6193 49.7 96.7193 48.1333 95.5859 45.8C95.0526 44.7333 94.7859 43.5 94.7859 42.1C94.7859 41.1667 94.8193 40.5 94.8859 40.1C95.2193 38.9 95.8193 37.7667 96.6859 36.7C98.0859 35.0333 99.9526 34 102.286 33.6ZM101.586 58.4C108.253 58.1333 111.453 58 111.186 58H111.786V76.9V95.8H114.886H117.986V99.4V103H117.086L110.686 102.8C107.019 102.733 103.219 102.733 99.2859 102.8L92.4859 103H91.5859V99.4V95.8H95.0859H98.4859V82.1C98.4859 72.8333 98.4526 68.0667 98.3859 67.8C98.1193 67 97.6859 66.5333 97.0859 66.4C96.1526 66.1333 94.8193 66 93.0859 66H91.8859V62.4V58.8H92.1859L101.586 58.4ZM132.82 58.4C139.353 58.1333 142.52 58 142.32 58H142.92V61.7V65.4L143.72 64.6C145.386 62.8667 147.386 61.4667 149.72 60.4C151.653 59.3333 153.92 58.6 156.52 58.2C158.186 57.9333 160.486 57.9 163.42 58.1C163.686 58.1667 163.92 58.2 164.12 58.2C169.253 58.8 172.72 60.9667 174.52 64.7C174.92 65.5 175.286 66.7333 175.62 68.4C175.753 69.1333 175.853 73.9 175.92 82.7V95.8H179.42H182.82V99.4V103H181.92L174.92 102.8C170.92 102.733 166.92 102.733 162.92 102.8C158.253 102.933 155.953 103 156.02 103H155.12V99.4V95.8H158.62H162.02V83.3C162.02 74.6333 161.986 70.1 161.92 69.7C161.586 66.3 160.153 64.4333 157.62 64.1C157.153 64.1 156.62 64.1 156.02 64.1C152.82 64.3 150.086 65.5333 147.82 67.8C146.22 69.4 145.153 71.1667 144.62 73.1C144.22 74.2333 144.02 77.1 144.02 81.7C144.02 82.5 144.02 83.9 144.02 85.9V95.8H147.52H150.92V99.4V103H150.02L143.02 102.8C139.02 102.733 135.02 102.733 131.02 102.8C126.353 102.933 124.053 103 124.12 103H123.22V99.4V95.8H126.72H130.12V82C130.12 72.8 130.053 68.0333 129.92 67.7C129.72 67.0333 129.286 66.6 128.62 66.4C127.686 66.1333 126.32 66 124.52 66H123.22V62.4V58.8H123.52C123.186 58.8 126.286 58.6667 132.82 58.4ZM202.987 57.8H209.287C211.553 58 213.453 58.4 214.987 59L215.687 59.2L217.487 58.5L219.287 57.7H220.387C221.12 57.7 221.587 57.7667 221.787 57.9C222.187 58.1667 222.42 58.8333 222.487 59.9C222.487 60.5 222.487 61.9333 222.487 64.2C222.487 68 222.253 70.0667 221.787 70.4C221.52 70.5333 220.553 70.6 218.887 70.6C217.22 70.6 216.253 70.5333 215.987 70.4C215.52 70.0667 215.287 69.6333 215.287 69.1C215.287 67.0333 214.32 65.5333 212.387 64.6C210.787 63.8 208.62 63.4 205.887 63.4C203.287 63.4 201.253 63.7 199.787 64.3C198.053 65.0333 197.187 66.2667 197.187 68C197.187 68.2667 197.253 68.5667 197.387 68.9C197.587 69.7667 198.32 70.5 199.587 71.1C200.52 71.6333 202.887 72.2667 206.687 73C210.153 73.6 212.587 74.1 213.987 74.5C217.987 75.9 221.02 78.1 223.087 81.1C224.02 82.6333 224.687 84.1333 225.087 85.6C225.22 86.2667 225.287 87.2667 225.287 88.6C225.287 90 225.22 91.0333 225.087 91.7C224.22 96.3667 221.687 99.6667 217.487 101.6C215.687 102.467 213.453 103.067 210.787 103.4C210.32 103.467 208.987 103.5 206.787 103.5C204.387 103.5 202.253 103.3 200.387 102.9C199.187 102.567 198.02 102.133 196.887 101.6L195.787 101.1L193.387 102.3L190.887 103.6H189.887C189.087 103.6 188.587 103.533 188.387 103.4C187.987 103.2 187.753 102.6 187.687 101.6C187.687 100.933 187.687 99.0333 187.687 95.9C187.687 91.3 187.887 88.8333 188.287 88.5C188.62 88.3 189.587 88.2 191.187 88.2C192.92 88.2 193.92 88.2667 194.187 88.4C194.387 88.5333 194.72 89.1333 195.187 90.2C196.453 93.8667 198.92 96.1333 202.587 97C205.587 97.8 208.653 97.7667 211.787 96.9C214.12 96.1 215.453 94.7333 215.787 92.8C216.187 90.4 214.953 88.6 212.087 87.4C211.02 86.9333 208.953 86.4333 205.887 85.9C202.82 85.3667 201.12 85.0333 200.787 84.9C194.52 83.4333 190.42 80.4333 188.487 75.9C188.287 75.3667 188.12 74.8333 187.987 74.3C187.853 73.7 187.787 72.7667 187.787 71.5C187.787 70.2333 187.82 69.4 187.887 69C188.753 64.8 191.053 61.7667 194.787 59.9C197.053 58.7 199.787 58 202.987 57.8ZM230.597 80.8V74.7H245.897H261.097V80.8V86.9H245.897H230.597V80.8ZM415.975 34C422.642 33.7333 425.908 33.6 425.775 33.6H426.375V63.6C426.375 83.6 426.442 93.7667 426.575 94.1C426.775 94.7667 427.208 95.2 427.875 95.4C428.808 95.6667 430.175 95.8 431.975 95.8H433.275V99.4C433.275 101.8 433.242 103 433.175 103C431.908 103 428.475 103.1 422.875 103.3C417.275 103.5 413.842 103.6 412.575 103.6C412.508 103.6 412.475 102.9 412.475 101.5V99.5L411.975 99.8C409.175 101.4 405.975 102.533 402.375 103.2C399.242 103.667 396.375 103.733 393.775 103.4C388.842 102.533 384.908 100.633 381.975 97.7C377.575 93.3667 375.475 87.4333 375.675 79.9C375.742 77.3 376.175 74.7333 376.975 72.2C379.108 66.0667 383.142 61.8667 389.075 59.6C389.275 59.5333 389.475 59.4667 389.675 59.4C392.008 58.6 394.575 58.1333 397.375 58C402.708 57.8667 407.642 58.8667 412.175 61L413.075 61.4V52.6C413.075 46.7333 413.008 43.6333 412.875 43.3C412.675 42.6333 412.242 42.2 411.575 42C410.642 41.7333 409.275 41.6 407.475 41.6H406.175V38V34.4H406.475C406.142 34.4 409.308 34.2667 415.975 34ZM404.675 64.4C403.342 64.1333 401.942 64.0667 400.475 64.2C397.542 64.5333 395.308 65.4667 393.775 67C392.175 68.6667 391.275 71.7667 391.075 76.3C391.008 77.9 390.975 79.9333 390.975 82.4C391.042 88.3333 391.608 92.1 392.675 93.7C392.875 94.0333 393.142 94.3667 393.475 94.7C395.675 97.1667 398.908 98.0333 403.175 97.3C404.642 97.0333 406.042 96.5667 407.375 95.9C408.775 95.1667 410.075 94.2 411.275 93L412.475 91.8V80V68.2L411.975 67.8C409.775 65.9333 407.342 64.8 404.675 64.4ZM448.542 58.4C455.076 58.1333 458.242 58 458.042 58H458.642V61.7V65.4L459.442 64.6C461.109 62.8667 463.109 61.4667 465.442 60.4C467.376 59.3333 469.642 58.6 472.242 58.2C474.242 57.9333 476.742 57.9333 479.742 58.2C479.942 58.2 480.109 58.2 480.242 58.2C482.442 58.4667 484.342 59.0667 485.942 60C487.942 61.1333 489.376 62.7 490.242 64.7L490.542 65.4L491.342 64.6C493.076 62.8667 495.076 61.4667 497.342 60.4C499.276 59.3333 501.542 58.6 504.142 58.2C505.809 57.9333 508.109 57.9 511.042 58.1C511.309 58.1667 511.542 58.2 511.742 58.2C513.742 58.4 515.542 58.8667 517.142 59.6C520.476 61.2667 522.509 64.2 523.242 68.4C523.376 69.1333 523.476 73.9 523.542 82.7V95.8H527.042H530.442V99.4V103H529.542C529.609 103 527.309 102.933 522.642 102.8C518.642 102.733 514.642 102.733 510.642 102.8L503.642 103H502.742V99.4V95.8H506.242H509.642V83.3C509.642 74.6333 509.609 70.1 509.542 69.7C509.209 66.3 507.776 64.4333 505.242 64.1C504.776 64.1 504.242 64.1 503.642 64.1C500.442 64.3 497.709 65.5333 495.442 67.8C493.842 69.4 492.776 71.1667 492.242 73.1C491.842 74.2333 491.642 77.1 491.642 81.7C491.642 82.5 491.642 83.9 491.642 85.9V95.8H495.142H498.542V99.4V103H497.642L490.642 102.8C486.642 102.733 482.642 102.733 478.642 102.8C473.976 102.933 471.676 103 471.742 103H470.842V99.4V95.8H474.342H477.742V83.3C477.742 74.6333 477.709 70.1 477.642 69.7C477.309 66.3 475.876 64.4333 473.342 64.1C472.876 64.1 472.342 64.1 471.742 64.1C468.542 64.3 465.809 65.5333 463.542 67.8C461.942 69.4 460.876 71.1667 460.342 73.1C459.942 74.2333 459.742 77.1 459.742 81.7C459.742 82.5 459.742 83.9 459.742 85.9V95.8H463.242H466.642V99.4V103H465.742L458.742 102.8C454.742 102.733 450.742 102.733 446.742 102.8C442.076 102.933 439.776 103 439.842 103H438.942V99.4V95.8H442.442H445.842V82C445.842 72.8 445.776 68.0333 445.642 67.7C445.442 67.0333 445.009 66.6 444.342 66.4C443.409 66.1333 442.042 66 440.242 66H438.942V62.4V58.8H439.242C438.909 58.8 442.009 58.6667 448.542 58.4ZM545.743 33.6C545.876 33.5333 546.476 33.5 547.543 33.5C548.676 33.6333 549.41 33.7333 549.743 33.8C552.343 34.6 554.21 36.1333 555.343 38.4C555.943 39.6667 556.243 40.9 556.243 42.1C556.243 43.3667 555.943 44.6 555.343 45.8C554.21 48.1333 552.343 49.7 549.743 50.5C549.143 50.6333 548.31 50.7 547.243 50.7C546.11 50.7 545.276 50.6333 544.743 50.5C542.076 49.7 540.176 48.1333 539.043 45.8C538.51 44.7333 538.243 43.5 538.243 42.1C538.243 41.1667 538.276 40.5 538.343 40.1C538.676 38.9 539.276 37.7667 540.143 36.7C541.543 35.0333 543.41 34 545.743 33.6ZM545.043 58.4C551.71 58.1333 554.91 58 554.643 58H555.243V76.9V95.8H558.343H561.443V99.4V103H560.543L554.143 102.8C550.476 102.733 546.676 102.733 542.743 102.8L535.943 103H535.043V99.4V95.8H538.543H541.943V82.1C541.943 72.8333 541.91 68.0667 541.843 67.8C541.576 67 541.143 66.5333 540.543 66.4C539.61 66.1333 538.276 66 536.543 66H535.343V62.4V58.8H535.643L545.043 58.4ZM576.277 58.4C582.81 58.1333 585.977 58 585.777 58H586.377V61.7V65.4L587.177 64.6C588.843 62.8667 590.843 61.4667 593.177 60.4C595.11 59.3333 597.377 58.6 599.977 58.2C601.643 57.9333 603.943 57.9 606.877 58.1C607.143 58.1667 607.377 58.2 607.577 58.2C612.71 58.8 616.177 60.9667 617.977 64.7C618.377 65.5 618.743 66.7333 619.077 68.4C619.21 69.1333 619.31 73.9 619.377 82.7V95.8H622.877H626.277V99.4V103H625.377L618.377 102.8C614.377 102.733 610.377 102.733 606.377 102.8C601.71 102.933 599.41 103 599.477 103H598.577V99.4V95.8H602.077H605.477V83.3C605.477 74.6333 605.443 70.1 605.377 69.7C605.043 66.3 603.61 64.4333 601.077 64.1C600.61 64.1 600.077 64.1 599.477 64.1C596.277 64.3 593.543 65.5333 591.277 67.8C589.677 69.4 588.61 71.1667 588.077 73.1C587.677 74.2333 587.477 77.1 587.477 81.7C587.477 82.5 587.477 83.9 587.477 85.9V95.8H590.977H594.377V99.4V103H593.477L586.477 102.8C582.477 102.733 578.477 102.733 574.477 102.8C569.81 102.933 567.51 103 567.577 103H566.677V99.4V95.8H570.177H573.577V82C573.577 72.8 573.51 68.0333 573.377 67.7C573.177 67.0333 572.743 66.6 572.077 66.4C571.143 66.1333 569.777 66 567.977 66H566.677V62.4V58.8H566.977C566.643 58.8 569.743 58.6667 576.277 58.4Z" fill="black"/>
</svg>
